<?xml version="1.0" encoding="UTF-8"?>
<svg width="667px" height="152px" viewBox="0 0 667 152" version="1.1" xmlns="http://www.w3.org/2000/svg" xmlns:xlink="http://www.w3.org/1999/xlink">
    <title>Group</title>
    <g id="Page-1" stroke="none" stroke-width="1" fill="none" fill-rule="evenodd">
        <g id="packup" transform="translate(-107.000000, -347.000000)">
            <g id="Group" transform="translate(107.363217, 347.000000)">
                <polygon id="Rectangle" fill="#A28153" points="21.8119727 74.3514974 81.6367833 57.1963905 141.636783 75 141.636783 120.10398 21.8119727 120.10398"></polygon>
                <polygon id="Rectangle" fill="#DAB179" points="21.6367833 75 81.6367833 99.3271204 81.6367833 151.922783 21.8119727 127.047173"></polygon>
                <polygon id="Rectangle" fill="#DAB179" points="100.036532 22.8851555 159.14362 40.1670414 141.636783 74.9227829 81.6367833 57.1963905"></polygon>
                <polygon id="Rectangle" fill="#DAB179" points="81.6367833 99.3271204 141.636783 75 141.636783 124.950349 81.6367833 151.922783"></polygon>
                <polygon id="Rectangle" fill="#DAB179" points="-7.81597009e-14 40.3933481 59.6729096 24.6472185 81.6367833 57.1963905 21.6367833 74.9227829"></polygon>
                <circle id="Oval" fill="#97C7D9" cx="73.6367833" cy="75" r="9"></circle>
                <circle id="Oval" fill="#97C7D9" cx="104.136783" cy="57.5" r="16.5"></circle>
                <circle id="Oval" fill="#97C7D9" cx="64.6367833" cy="23" r="23"></circle>
                <path d="M222.850848,122 L222.786706,102.365127 C227.191137,102.322901 232.311822,101.784526 238.148762,100.75 C243.985701,99.7154744 248.892579,98.163686 252.869395,96.0946349 C258.471147,93.1388475 262.832816,89.4546696 265.954403,85.0421013 C269.07599,80.629533 270.636783,75.1929955 270.636783,68.7324888 C270.636783,62.2719821 268.680446,56.7193244 264.767772,52.0745156 C260.855099,47.4297069 255.370941,43.882762 248.315299,41.4336811 C243.440493,39.7024342 238.202213,38.5306756 232.600462,37.9184054 C226.99871,37.3061351 218.446417,37 206.943584,37 C203.394382,37 199.877252,37.0316692 196.392193,37.0950075 C192.907134,37.1583458 189.988664,37.1900149 187.636783,37.1900149 C187.636783,44.2416791 187.658164,51.3038997 187.700925,58.3766766 C187.743687,65.4494536 187.765068,71.4982613 187.765068,76.5230999 L187.764763,78.9641474 C187.764661,79.3643109 187.764534,79.7611356 187.764381,80.1546213 L187.763161,82.4754692 C187.757059,91.5985946 187.736314,98.7985251 187.700925,104.075261 C187.658164,110.451316 187.636783,116.42623 187.636783,122 L187.636783,122 L222.850848,122 Z M222.069341,84 L220.636783,84 L220.636783,84 L220.636783,61 L220.636783,61 L222.004225,61 C223.349962,61 224.695698,61.1064815 226.041434,61.3194444 C227.387171,61.5324074 228.732907,62.0648148 230.078644,62.9166667 C231.598024,63.8962963 232.737558,65.1847222 233.497248,66.7819444 C234.256938,68.3791667 234.636783,70.0722222 234.636783,71.8611111 C234.636783,74.7574074 234.213527,76.9083333 233.367016,78.3138889 C232.520504,79.7194444 231.250737,80.9759259 229.557713,82.0833333 C228.732907,82.637037 227.539109,83.0949074 225.976318,83.4569444 C224.413527,83.8189815 223.111202,84 222.069341,84 L222.069341,84 Z M312.087625,125 C317.432768,125 323.446054,124.8196 330.127483,124.458801 C336.808912,124.098002 340.645345,123.875156 341.636783,123.790262 L341.636783,123.790262 L341.636783,93.2284644 C341.636783,87.2434457 340.839322,82.0967541 339.244401,77.7883895 C337.649479,73.480025 334.912248,69.7553059 331.032709,66.6142322 C326.808321,63.17603 321.711038,60.7141074 315.740858,59.2284644 C309.770678,57.7428215 301.677527,57 291.461407,57 L291.461407,57 L278.723586,57 L276.137226,78.8389513 C278.03389,78.7965044 280.243072,78.732834 282.764773,78.6479401 C285.286473,78.5630462 288.271563,78.5205993 291.720043,78.5205993 C294.349508,78.5205993 296.569467,78.5736579 298.379919,78.6797753 C300.19037,78.7858926 301.828398,78.9662921 303.294002,79.2209738 C305.751044,79.6454432 307.313636,80.1654182 307.981779,80.7808989 C308.649922,81.3963795 308.983993,82.1922597 308.983993,83.1685393 C307.475283,83.2109863 303.994474,83.4762797 298.541566,83.9644195 C293.088658,84.4525593 288.271563,85.3970037 284.090282,86.7977528 C278.270973,88.7078652 274.240562,91.0742821 271.999051,93.8970037 C269.757539,96.7197253 268.636783,100.168539 268.636783,104.243446 C268.636783,107.893883 269.822198,111.162297 272.193028,114.048689 C274.563857,116.935081 278.076996,119.290886 282.732443,121.116105 C286.482665,122.559301 291.385971,123.567416 297.442363,124.140449 C303.498755,124.713483 308.380509,125 312.087625,125 Z M311.636783,108 L311.070746,108 C309.896741,108 308.859005,107.912281 307.957538,107.736842 C307.05607,107.561404 306.290871,107.320175 305.66194,107.013158 C304.613722,106.530702 303.680808,105.807018 302.863198,104.842105 C302.045588,103.877193 301.636783,102.517544 301.636783,100.763158 C301.636783,99.2719298 302.05607,98 302.894645,96.9473684 C303.733219,95.8947368 304.550829,95.1491228 305.347475,94.7105263 C306.856909,93.9210526 308.167182,93.4385965 309.278293,93.2631579 C310.389404,93.0877193 311.175567,93 311.636783,93 L311.636783,93 L311.636783,108 L311.636783,108 Z M406.205533,125 L409.636783,100.301887 L409.636783,100.301887 L406.141992,100.301887 C405.464214,100.301887 403.547374,100.20566 400.391471,100.013208 C397.235568,99.8207547 394.598589,99.4893082 392.480533,99.0188679 C389.261089,98.2918239 386.687651,97.2974843 384.760221,96.0358491 C382.83279,94.7742138 381.869075,93.1169811 381.869075,91.0641509 C381.869075,88.9257862 382.84338,87.2150943 384.791992,85.9320755 C386.740603,84.6490566 389.282269,83.6654088 392.416992,82.9811321 C395.085742,82.3823899 397.775672,82.0188679 400.486783,81.890566 C403.197894,81.7622642 405.082964,81.6981132 406.141992,81.6981132 L409.064908,81.6981132 L405.760742,57 L405.760742,57 L402.583658,57 C393.645464,57 385.914561,57.8232704 379.39095,59.4698113 C372.867339,61.1163522 367.127408,63.6075472 362.171158,66.9433962 C357.935047,69.6377358 354.62029,72.9522013 352.226887,76.8867925 C349.833485,80.8213836 348.636783,85.5257862 348.636783,91 C348.636783,96.0893082 349.812304,100.686792 352.163346,104.792453 C354.514387,108.898113 357.829144,112.362264 362.107617,115.184906 C366.936783,118.349686 372.486089,120.77673 378.755533,122.466038 C385.024978,124.155346 392.967686,125 402.583658,125 L402.583658,125 L406.205533,125 Z M467.422611,132 L496.636783,123.286432 C492.552388,113.590452 489.155892,105.581658 486.447293,99.2600503 C483.738694,92.9384422 482.384395,89.7776382 482.384395,89.7776382 L482.384395,89.7776382 L482.384395,89.7135678 C482.900318,88.4748744 484.276114,85.3354271 486.511783,80.2952261 C488.747452,75.2550251 491.370064,69.5100503 494.379618,63.0603015 L494.379618,63.0603015 L461.876433,56.0125628 C457.835032,64.7261307 454.363296,72.0728643 451.461226,78.0527638 C450.142103,80.7709 448.976212,83.1580942 447.963552,85.2143465 L447.950968,85.2366164 L447.952301,85.0232977 C447.949721,83.0358354 447.948001,81.0274435 447.947142,78.9981219 L447.947142,73.2048807 C447.951011,65.1454711 447.972293,58.3575377 448.010987,52.8410804 C448.049455,47.3568831 448.070714,40.6844263 448.074763,32.82371 L448.075478,30 L415.636783,30 C415.636783,37.6030151 415.65828,45.2487437 415.701274,52.9371859 C415.744267,60.6256281 415.765764,67.9296482 415.765764,74.8492462 L415.76505,79.6834519 C415.76493,80.0743816 415.764796,80.4623311 415.764648,80.8473005 L415.762906,84.2315595 C415.75576,95.2442058 415.735216,103.574683 415.701274,109.22299 C415.663241,115.551991 415.64203,120.117809 415.637642,122.920444 L415.636783,123.927136 L448.075478,123.927136 L448.075478,123.927136 L448.074331,122.437856 C448.069363,118.871748 448.048248,113.099958 448.010987,105.122487 C447.998089,102.361055 447.987126,99.5525314 447.978097,96.6969158 L447.976649,96.5940972 L448.073503,96.7619603 C449.361777,99.0334068 450.749473,101.483716 452.236592,104.112889 L452.880016,105.250628 C455.911067,110.611181 460.758599,119.527638 467.422611,132 L467.422611,132 Z M521.374938,125 C525.172666,125 529.461111,124.232361 534.240275,122.697084 C539.019438,121.161806 542.966514,119.690499 546.081505,118.283161 L546.081505,118.283161 L546.209518,118.411101 L546.145511,123.016933 L577.636783,123.016933 C577.636783,115.937598 577.615448,109.977736 577.572777,105.137347 C577.530106,100.296958 577.50877,94.9128253 577.50877,88.9849483 L577.50977,86.6815322 C577.514437,81.2684129 577.535439,75.5859204 577.572777,69.6340546 C577.607828,64.0465887 577.628483,60.207239 577.634742,58.1160054 L577.636783,57.610121 C577.636783,57.5324161 577.636783,57.4580158 577.636783,57.38692 L577.636783,57 L545.441438,57 C545.441438,59.0470367 545.462774,62.6400125 545.505445,67.7789276 C545.548116,72.9178426 545.569452,77.5983067 545.569452,81.8203198 C545.569452,85.1894011 545.558784,88.750392 545.537448,92.5032926 C545.520751,95.4403452 545.510587,97.2281164 545.506957,97.8666061 L545.505687,98.0900775 C545.505526,98.1184548 545.505445,98.1326435 545.505445,98.1326435 C544.737365,98.5591094 543.510571,99.0388837 541.825063,99.5719661 C540.139554,100.105049 538.635398,100.37159 537.312594,100.37159 C535.264381,100.37159 534.005583,99.5826278 533.536201,98.0047037 C533.066819,96.4267796 532.832128,94.5929759 532.832128,92.5032926 C532.832128,90.6694889 532.810793,88.0467231 532.768122,84.6349953 C532.72545,81.2232675 532.704115,78.4299153 532.704115,76.2549389 C532.704115,73.0137974 532.72545,69.4208216 532.768122,65.4760113 C532.810793,61.531201 532.832128,58.7058639 532.832128,57 L532.832128,57 L500.636783,57 L500.636783,57 L500.636783,57.532669 C500.641511,59.1774573 500.66261,61.9745012 500.70079,65.9238006 C500.743461,70.3377234 500.764797,74.5917215 500.764797,78.6857949 L500.764797,78.6857949 L500.763911,79.5202811 C500.759481,81.7359858 500.738441,84.9228598 500.70079,89.0809031 C500.658119,93.7933521 500.636783,98.6230793 500.636783,103.570085 C500.636783,110.095014 502.428969,115.297899 506.013342,119.178739 C509.597714,123.05958 514.718246,125 521.374938,125 Z M622.634239,152 L622.507012,122.779046 C626.747894,122.736512 631.285638,122.172935 636.120244,121.088314 C640.954849,120.003694 645.153323,118.483098 648.715664,116.526528 C653.88954,113.634206 658.003195,109.986904 661.056631,105.584621 C664.110066,101.182337 665.636783,95.7273338 665.636783,89.2196105 C665.636783,83.3498993 663.834408,77.9693306 660.229659,73.0779046 C656.624909,68.1864786 651.238989,64.4434744 644.071898,61.8488919 C637.668166,59.5520484 631.540091,58.1696888 625.687674,57.7018133 C619.835257,57.2339378 613.155867,57 605.649506,57 C603.995562,57 601.557055,57.0212671 598.333984,57.0638012 C595.110914,57.1063353 592.54518,57.1276024 590.636783,57.1276024 C590.636783,64.4434744 590.657988,72.1740542 590.700396,80.3193418 C590.742805,88.4646295 590.76401,95.5146631 590.76401,101.469443 C590.76401,102.470631 590.763884,103.458417 590.763633,104.432801 L590.762504,107.315747 C590.756983,117.739128 590.736281,126.540864 590.700396,133.720954 C590.665841,140.635114 590.645364,145.960809 590.638965,149.698037 L590.637569,150.677897 C590.636783,150.834643 590.636783,150.988108 590.636783,151.13829 L590.636783,152 L622.634239,152 Z M619.636783,103 L619.636783,80 L619.636783,80 L620.334344,80 C621.644913,80 622.955482,80.1064815 624.266052,80.3194444 C625.576621,80.5324074 626.88719,81.0648148 628.197759,81.9166667 C629.677434,82.8962963 630.78719,84.1847222 631.527027,85.7819444 C632.266865,87.3791667 632.636783,89.0722222 632.636783,90.8611111 C632.636783,93.7574074 632.192881,95.9083333 631.305076,97.3138889 C630.417271,98.7194444 629.148978,99.9759259 627.500198,101.083333 C626.612393,101.67963 625.396946,102.148148 623.853856,102.488889 C622.310767,102.82963 620.905076,103 619.636783,103 L619.636783,103 Z" id="Packup" fill="#8C5406" fill-rule="nonzero"></path>
            </g>
        </g>
    </g>
</svg>